<svg xmlns="http://www.w3.org/2000/svg" width="840" height="879" viewBox="0 0 840 879" version="1.1"><path d="M 396.500 83.075 C 341.636 87.463, 287.710 103.747, 247.148 128.175 C 243.654 130.279, 240.605 132, 240.371 132 C 239.846 132, 213.560 149.565, 211.208 151.488 C 210.269 152.256, 205.675 155.926, 201 159.645 C 155.698 195.679, 117.196 247.578, 95.764 301.500 C 84.603 329.580, 77.827 356.049, 72.852 391 C 71.026 403.832, 71.022 460.018, 72.846 472.500 C 78.270 509.604, 87.578 544.298, 98.737 569 C 137.473 654.751, 200.212 717.309, 283.170 752.901 C 307.741 763.443, 351.469 776, 363.608 776 L 366 776 365.985 733.250 C 365.963 672.992, 362.686 662.718, 338 645.511 C 306.205 623.350, 297.045 598.473, 301.002 545.034 C 301.554 537.590, 302.698 520.025, 303.545 506 C 304.393 491.975, 305.502 474.200, 306.010 466.500 C 306.518 458.800, 307.413 444.400, 308 434.500 C 308.587 424.600, 309.482 410.200, 309.989 402.500 C 310.496 394.800, 311.599 377.250, 312.441 363.500 C 313.282 349.750, 314.440 331.075, 315.013 322 C 317.341 285.170, 317.991 274.753, 318.979 258.500 C 324.096 174.276, 323.653 177, 332.253 177 C 342.376 177, 341.654 167.896, 342.991 312.500 C 344.694 496.880, 344.996 510.182, 347.562 513.616 C 354.554 522.978, 367.524 523.210, 373.564 514.082 L 376.020 510.371 376.956 460.436 C 377.471 432.971, 378.393 369.325, 379.006 319 C 380.726 177.715, 380.599 179.730, 387.941 177.170 C 397.505 173.837, 399.996 181.223, 400.015 212.962 C 400.023 227.008, 400.448 261.900, 400.959 290.500 C 401.470 319.100, 402.399 379.400, 403.022 424.500 C 404.383 522.949, 403.950 520.500, 420 520.500 C 436.050 520.500, 435.617 522.949, 436.979 424.500 C 437.604 379.400, 438.534 318.650, 439.046 289.500 C 439.558 260.350, 439.982 225.458, 439.989 211.962 C 440.003 181.400, 443.043 172.873, 452.405 177.139 C 459.391 180.322, 459.288 178.624, 460.997 319.500 C 461.611 370.100, 462.528 433.739, 463.036 460.919 L 463.958 510.339 466.425 514.066 C 472.476 523.210, 485.439 522.986, 492.438 513.616 C 495.019 510.161, 495.341 496.050, 497.015 313.002 C 498.337 168.332, 497.674 177, 507.418 177 C 516.374 177, 515.894 174.123, 521.021 258.500 C 522.002 274.643, 522.565 283.662, 524.986 322 C 525.559 331.075, 526.712 349.525, 527.549 363 C 528.386 376.475, 529.500 394.250, 530.025 402.500 C 530.550 410.750, 531.415 424.700, 531.946 433.500 C 534.507 475.930, 538.047 531.946, 538.971 544.648 C 542.899 598.665, 533.870 623.297, 502 645.511 C 477.314 662.718, 474.037 672.992, 474.015 733.250 L 474 776 476.798 776 C 488.626 776, 532.517 763.332, 556.830 752.901 C 639.788 717.309, 702.527 654.751, 741.263 569 C 748.322 553.373, 758.459 521.028, 762.104 502.500 C 767.649 474.317, 768.468 465.263, 768.485 432 C 768.501 399.349, 768.105 394.352, 763.460 368.500 C 750.387 295.752, 711.564 224.883, 658.171 176.302 C 652.852 171.462, 648.275 167.253, 648 166.947 C 647.725 166.642, 643.675 163.352, 639 159.638 C 634.325 155.923, 629.731 152.256, 628.792 151.488 C 626.440 149.565, 600.154 132, 599.629 132 C 599.395 132, 596.346 130.279, 592.852 128.175 C 539.162 95.842, 461.087 77.909, 396.500 83.075" stroke="none" fill="#0f9ed3" fill-rule="evenodd"/><path d="M -0 439.501 L -0 879.002 420.250 878.751 L 840.500 878.500 840.751 439.250 L 841.002 -0 420.501 -0 L 0 0 -0 439.501 M 0.496 440 C 0.496 681.725, 0.610 780.612, 0.750 659.750 C 0.890 538.887, 0.890 341.112, 0.750 220.250 C 0.610 99.387, 0.496 198.275, 0.496 440 M 396.500 83.075 C 341.636 87.463, 287.710 103.747, 247.148 128.175 C 243.654 130.279, 240.605 132, 240.371 132 C 239.846 132, 213.560 149.565, 211.208 151.488 C 210.269 152.256, 205.675 155.926, 201 159.645 C 155.698 195.679, 117.196 247.578, 95.764 301.500 C 84.603 329.580, 77.827 356.049, 72.852 391 C 71.026 403.832, 71.022 460.018, 72.846 472.500 C 78.270 509.604, 87.578 544.298, 98.737 569 C 137.473 654.751, 200.212 717.309, 283.170 752.901 C 307.741 763.443, 351.469 776, 363.608 776 L 366 776 365.985 733.250 C 365.963 672.992, 362.686 662.718, 338 645.511 C 306.205 623.350, 297.045 598.473, 301.002 545.034 C 301.554 537.590, 302.698 520.025, 303.545 506 C 304.393 491.975, 305.502 474.200, 306.010 466.500 C 306.518 458.800, 307.413 444.400, 308 434.500 C 308.587 424.600, 309.482 410.200, 309.989 402.500 C 310.496 394.800, 311.599 377.250, 312.441 363.500 C 313.282 349.750, 314.440 331.075, 315.013 322 C 317.341 285.170, 317.991 274.753, 318.979 258.500 C 324.096 174.276, 323.653 177, 332.253 177 C 342.376 177, 341.654 167.896, 342.991 312.500 C 344.694 496.880, 344.996 510.182, 347.562 513.616 C 354.554 522.978, 367.524 523.210, 373.564 514.082 L 376.020 510.371 376.956 460.436 C 377.471 432.971, 378.393 369.325, 379.006 319 C 380.726 177.715, 380.599 179.730, 387.941 177.170 C 397.505 173.837, 399.996 181.223, 400.015 212.962 C 400.023 227.008, 400.448 261.900, 400.959 290.500 C 401.470 319.100, 402.399 379.400, 403.022 424.500 C 404.383 522.949, 403.950 520.500, 420 520.500 C 436.050 520.500, 435.617 522.949, 436.979 424.500 C 437.604 379.400, 438.534 318.650, 439.046 289.500 C 439.558 260.350, 439.982 225.458, 439.989 211.962 C 440.003 181.400, 443.043 172.873, 452.405 177.139 C 459.391 180.322, 459.288 178.624, 460.997 319.500 C 461.611 370.100, 462.528 433.739, 463.036 460.919 L 463.958 510.339 466.425 514.066 C 472.476 523.210, 485.439 522.986, 492.438 513.616 C 495.019 510.161, 495.341 496.050, 497.015 313.002 C 498.337 168.332, 497.674 177, 507.418 177 C 516.374 177, 515.894 174.123, 521.021 258.500 C 522.002 274.643, 522.565 283.662, 524.986 322 C 525.559 331.075, 526.712 349.525, 527.549 363 C 528.386 376.475, 529.500 394.250, 530.025 402.500 C 530.550 410.750, 531.415 424.700, 531.946 433.500 C 534.507 475.930, 538.047 531.946, 538.971 544.648 C 542.899 598.665, 533.870 623.297, 502 645.511 C 477.314 662.718, 474.037 672.992, 474.015 733.250 L 474 776 476.798 776 C 488.626 776, 532.517 763.332, 556.830 752.901 C 639.788 717.309, 702.527 654.751, 741.263 569 C 748.322 553.373, 758.459 521.028, 762.104 502.500 C 767.649 474.317, 768.468 465.263, 768.485 432 C 768.501 399.349, 768.105 394.352, 763.460 368.500 C 750.387 295.752, 711.564 224.883, 658.171 176.302 C 652.852 171.462, 648.275 167.253, 648 166.947 C 647.725 166.642, 643.675 163.352, 639 159.638 C 634.325 155.923, 629.731 152.256, 628.792 151.488 C 626.440 149.565, 600.154 132, 599.629 132 C 599.395 132, 596.346 130.279, 592.852 128.175 C 539.162 95.842, 461.087 77.909, 396.500 83.075" stroke="none" fill="#f0f1f1" fill-rule="evenodd"/></svg>