<svg xmlns="http://www.w3.org/2000/svg" width="500" height="500" viewBox="0 0 500 500" version="1.1"><path d="M 140.500 174.399 C 130.648 177.515, 123.607 184.090, 120.108 193.442 C 117.960 199.181, 117.947 199.677, 118.223 265.361 L 118.500 331.500 121.358 337.320 C 123.391 341.460, 125.844 344.425, 129.858 347.591 C 139.394 355.113, 138.322 355, 200.143 355 L 254.923 355 255.925 351.250 C 258.223 342.645, 260.986 330.379, 260.993 328.750 C 261 327.121, 258.878 327, 230.383 327 L 199.767 327 200.383 324.750 C 200.722 323.512, 205.307 305.175, 210.573 284 C 215.838 262.825, 224.163 229.446, 229.073 209.824 C 233.983 190.202, 238 173.889, 238 173.574 C 238 173.258, 216.963 173.030, 191.250 173.067 C 156.488 173.117, 143.474 173.458, 140.500 174.399" stroke="none" fill="#154c82" fill-rule="evenodd"/><path d="M 241.638 156.750 C 240.119 163.213, 238.650 169.283, 238.373 170.240 C 237.907 171.857, 234.554 171.999, 191.186 172.250 L 144.500 172.520 191.250 172.760 C 216.963 172.892, 238 173.258, 238 173.574 C 238 173.889, 233.983 190.202, 229.073 209.824 C 224.163 229.446, 215.838 262.825, 210.573 284 C 205.307 305.175, 200.722 323.512, 200.383 324.750 L 199.767 327 230.383 327 C 258.870 327, 261.001 327.122, 261.015 328.750 C 261.026 329.943, 261.274 330.117, 261.796 329.296 C 262.371 328.391, 274.494 328.018, 310.531 327.796 C 357.095 327.509, 358.635 327.437, 363.122 325.363 C 369.461 322.432, 375.634 316.615, 378.828 310.563 L 381.500 305.500 381.777 237.546 C 382.034 174.569, 381.924 169.223, 380.277 164.546 C 378.098 158.360, 370.451 150.333, 363.761 147.211 C 359.044 145.010, 358.753 145, 301.711 145 L 244.401 145 241.638 156.750 M 125.946 182.750 L 122.500 186.500 126.250 183.054 C 129.740 179.846, 130.460 179, 129.696 179 C 129.529 179, 127.842 180.688, 125.946 182.750 M 129.918 348.363 C 131.249 350.003, 135 352.483, 135 351.723 C 135 351.532, 133.537 350.305, 131.750 348.997 C 129.739 347.525, 129.040 347.283, 129.918 348.363" stroke="none" fill="#05ddd8" fill-rule="evenodd"/></svg>